<?xml version="1.0" encoding="utf-8"?>
<svg width="700" height="1646" viewBox="0 0 700 1646" xmlns="http://www.w3.org/2000/svg">
  <defs>
    <style>
        text { font-family: 'Segoe UI', Arial, sans-serif; }
        .title { font-size: 20px; font-weight: 600; fill: #222222; }
        .section-header { font-size: 13px; font-weight: 600; fill: #333333; }
        .label { font-size: 12px; fill: #555555; }
        .value { font-size: 12px; fill: #222222; }
        .tab-text { font-size: 12px; fill: #444444; }
        .tab-active { font-size: 12px; fill: #111111; font-weight: 600; }
    </style>
  </defs>
  <rect x="0" y="0" width="700" height="1646" fill="#ffffff" stroke="#cccccc" stroke-width="1" />
  <rect x="0" y="0" width="700" height="44" fill="#f0f0f0" />
  <line x1="0" y1="44" x2="700" y2="44" stroke="#cccccc" stroke-width="1" />
  <text x="16" y="32" class="title">Edit Certificate Store Type</text>
  <g>
    <rect x="0" y="44" width="700" height="36" fill="#ffffff" />
    <line x1="0" y1="80" x2="700" y2="80" stroke="#d0d0d0" stroke-width="1" />
    <text x="16" y="68" class="tab-text">Basic</text>
    <text x="75" y="68" class="tab-text">Advanced</text>
    <text x="155" y="68" class="tab-text">Custom Fields</text>
    <text x="270" y="68" class="tab-active">Entry Parameters</text>
    <rect x="270" y="77" width="114" height="3" fill="#3355ee" />
  </g>
  <rect x="20" y="96" width="660" height="1524" fill="#ffffff" stroke="#d0d0d0" rx="8" />
  <rect x="21" y="97" width="658" height="8" fill="#f2f2f2" />
  <rect x="21" y="97" width="658" height="42" fill="#f2f2f2" rx="7" />
  <rect x="28" y="104" width="58" height="28" fill="#333333" stroke="#bbbbbb" rx="4" />
  <text x="57" y="124" text-anchor="middle" fill="#ffffff" font-size="11" font-family="'Segoe UI', Arial, sans-serif">ADD</text>
  <rect x="94" y="104" width="58" height="28" fill="#f0f0f0" stroke="#bbbbbb" rx="4" />
  <text x="123" y="124" text-anchor="middle" fill="#888888" font-size="11" font-family="'Segoe UI', Arial, sans-serif">EDIT</text>
  <rect x="160" y="104" width="70" height="28" fill="#f0f0f0" stroke="#bbbbbb" rx="4" />
  <text x="195" y="124" text-anchor="middle" fill="#888888" font-size="11" font-family="'Segoe UI', Arial, sans-serif">DELETE</text>
  <text x="670" y="123" text-anchor="end" class="label">Total: 36</text>
  <line x1="20" y1="140" x2="680" y2="140" stroke="#d0d0d0" stroke-width="1" />
  <rect x="21" y="140" width="658" height="32" fill="#f8f8f8" />
  <text x="72" y="162" class="label">Display Name</text>
  <text x="292" y="162" class="label">Type</text>
  <text x="452" y="162" class="label">Default Value</text>
  <line x1="64" y1="140" x2="64" y2="172" stroke="#d8d8d8" stroke-width="1" />
  <line x1="284" y1="140" x2="284" y2="172" stroke="#d8d8d8" stroke-width="1" />
  <line x1="444" y1="140" x2="444" y2="172" stroke="#d8d8d8" stroke-width="1" />
  <line x1="20" y1="172" x2="680" y2="172" stroke="#d0d0d0" stroke-width="1" />
  <rect x="21" y="172" width="658" height="38" fill="#ffffff" />
  <line x1="20" y1="210" x2="680" y2="210" stroke="#e8e8e8" stroke-width="1" />
  <line x1="64" y1="172" x2="64" y2="210" stroke="#e8e8e8" stroke-width="1" />
  <line x1="284" y1="172" x2="284" y2="210" stroke="#e8e8e8" stroke-width="1" />
  <line x1="444" y1="172" x2="444" y2="210" stroke="#e8e8e8" stroke-width="1" />
  <rect x="34" y="183" width="16" height="16" fill="#ffffff" stroke="#cccccc" rx="3" />
  <text x="72" y="198" class="value">Enrollment ID</text>
  <text x="292" y="198" class="value">String</text>
  <rect x="21" y="210" width="658" height="38" fill="#f7f7f7" />
  <line x1="20" y1="248" x2="680" y2="248" stroke="#e8e8e8" stroke-width="1" />
  <line x1="64" y1="210" x2="64" y2="248" stroke="#e8e8e8" stroke-width="1" />
  <line x1="284" y1="210" x2="284" y2="248" stroke="#e8e8e8" stroke-width="1" />
  <line x1="444" y1="210" x2="444" y2="248" stroke="#e8e8e8" stroke-width="1" />
  <rect x="34" y="221" width="16" height="16" fill="#ffffff" stroke="#cccccc" rx="3" />
  <text x="72" y="236" class="value">Contract ID</text>
  <text x="292" y="236" class="value">String</text>
  <text x="452" y="236" class="value">SET-DEFAULT</text>
  <rect x="21" y="248" width="658" height="38" fill="#ffffff" />
  <line x1="20" y1="286" x2="680" y2="286" stroke="#e8e8e8" stroke-width="1" />
  <line x1="64" y1="248" x2="64" y2="286" stroke="#e8e8e8" stroke-width="1" />
  <line x1="284" y1="248" x2="284" y2="286" stroke="#e8e8e8" stroke-width="1" />
  <line x1="444" y1="248" x2="444" y2="286" stroke="#e8e8e8" stroke-width="1" />
  <rect x="34" y="259" width="16" height="16" fill="#ffffff" stroke="#cccccc" rx="3" />
  <text x="72" y="274" class="value">SANs</text>
  <text x="292" y="274" class="value">String</text>
  <rect x="21" y="286" width="658" height="38" fill="#f7f7f7" />
  <line x1="20" y1="324" x2="680" y2="324" stroke="#e8e8e8" stroke-width="1" />
  <line x1="64" y1="286" x2="64" y2="324" stroke="#e8e8e8" stroke-width="1" />
  <line x1="284" y1="286" x2="284" y2="324" stroke="#e8e8e8" stroke-width="1" />
  <line x1="444" y1="286" x2="444" y2="324" stroke="#e8e8e8" stroke-width="1" />
  <rect x="34" y="297" width="16" height="16" fill="#ffffff" stroke="#cccccc" rx="3" />
  <text x="72" y="312" class="value">Admin - Address Line 1</text>
  <text x="292" y="312" class="value">String</text>
  <text x="452" y="312" class="value">SET-DEFAULT</text>
  <rect x="21" y="324" width="658" height="38" fill="#ffffff" />
  <line x1="20" y1="362" x2="680" y2="362" stroke="#e8e8e8" stroke-width="1" />
  <line x1="64" y1="324" x2="64" y2="362" stroke="#e8e8e8" stroke-width="1" />
  <line x1="284" y1="324" x2="284" y2="362" stroke="#e8e8e8" stroke-width="1" />
  <line x1="444" y1="324" x2="444" y2="362" stroke="#e8e8e8" stroke-width="1" />
  <rect x="34" y="335" width="16" height="16" fill="#ffffff" stroke="#cccccc" rx="3" />
  <text x="72" y="350" class="value">Admin - Address Line 2</text>
  <text x="292" y="350" class="value">String</text>
  <rect x="21" y="362" width="658" height="38" fill="#f7f7f7" />
  <line x1="20" y1="400" x2="680" y2="400" stroke="#e8e8e8" stroke-width="1" />
  <line x1="64" y1="362" x2="64" y2="400" stroke="#e8e8e8" stroke-width="1" />
  <line x1="284" y1="362" x2="284" y2="400" stroke="#e8e8e8" stroke-width="1" />
  <line x1="444" y1="362" x2="444" y2="400" stroke="#e8e8e8" stroke-width="1" />
  <rect x="34" y="373" width="16" height="16" fill="#ffffff" stroke="#cccccc" rx="3" />
  <text x="72" y="388" class="value">Admin - City</text>
  <text x="292" y="388" class="value">String</text>
  <text x="452" y="388" class="value">SET-DEFAULT</text>
  <rect x="21" y="400" width="658" height="38" fill="#ffffff" />
  <line x1="20" y1="438" x2="680" y2="438" stroke="#e8e8e8" stroke-width="1" />
  <line x1="64" y1="400" x2="64" y2="438" stroke="#e8e8e8" stroke-width="1" />
  <line x1="284" y1="400" x2="284" y2="438" stroke="#e8e8e8" stroke-width="1" />
  <line x1="444" y1="400" x2="444" y2="438" stroke="#e8e8e8" stroke-width="1" />
  <rect x="34" y="411" width="16" height="16" fill="#ffffff" stroke="#cccccc" rx="3" />
  <text x="72" y="426" class="value">Admin - Country</text>
  <text x="292" y="426" class="value">String</text>
  <text x="452" y="426" class="value">SET-DEFAULT</text>
  <rect x="21" y="438" width="658" height="38" fill="#f7f7f7" />
  <line x1="20" y1="476" x2="680" y2="476" stroke="#e8e8e8" stroke-width="1" />
  <line x1="64" y1="438" x2="64" y2="476" stroke="#e8e8e8" stroke-width="1" />
  <line x1="284" y1="438" x2="284" y2="476" stroke="#e8e8e8" stroke-width="1" />
  <line x1="444" y1="438" x2="444" y2="476" stroke="#e8e8e8" stroke-width="1" />
  <rect x="34" y="449" width="16" height="16" fill="#ffffff" stroke="#cccccc" rx="3" />
  <text x="72" y="464" class="value">Admin - Email</text>
  <text x="292" y="464" class="value">String</text>
  <text x="452" y="464" class="value">SET-DEFAULT</text>
  <rect x="21" y="476" width="658" height="38" fill="#ffffff" />
  <line x1="20" y1="514" x2="680" y2="514" stroke="#e8e8e8" stroke-width="1" />
  <line x1="64" y1="476" x2="64" y2="514" stroke="#e8e8e8" stroke-width="1" />
  <line x1="284" y1="476" x2="284" y2="514" stroke="#e8e8e8" stroke-width="1" />
  <line x1="444" y1="476" x2="444" y2="514" stroke="#e8e8e8" stroke-width="1" />
  <rect x="34" y="487" width="16" height="16" fill="#ffffff" stroke="#cccccc" rx="3" />
  <text x="72" y="502" class="value">Admin - First Name</text>
  <text x="292" y="502" class="value">String</text>
  <text x="452" y="502" class="value">SET-DEFAULT</text>
  <rect x="21" y="514" width="658" height="38" fill="#f7f7f7" />
  <line x1="20" y1="552" x2="680" y2="552" stroke="#e8e8e8" stroke-width="1" />
  <line x1="64" y1="514" x2="64" y2="552" stroke="#e8e8e8" stroke-width="1" />
  <line x1="284" y1="514" x2="284" y2="552" stroke="#e8e8e8" stroke-width="1" />
  <line x1="444" y1="514" x2="444" y2="552" stroke="#e8e8e8" stroke-width="1" />
  <rect x="34" y="525" width="16" height="16" fill="#ffffff" stroke="#cccccc" rx="3" />
  <text x="72" y="540" class="value">Admin - Last Name</text>
  <text x="292" y="540" class="value">String</text>
  <text x="452" y="540" class="value">SET-DEFAULT</text>
  <rect x="21" y="552" width="658" height="38" fill="#ffffff" />
  <line x1="20" y1="590" x2="680" y2="590" stroke="#e8e8e8" stroke-width="1" />
  <line x1="64" y1="552" x2="64" y2="590" stroke="#e8e8e8" stroke-width="1" />
  <line x1="284" y1="552" x2="284" y2="590" stroke="#e8e8e8" stroke-width="1" />
  <line x1="444" y1="552" x2="444" y2="590" stroke="#e8e8e8" stroke-width="1" />
  <rect x="34" y="563" width="16" height="16" fill="#ffffff" stroke="#cccccc" rx="3" />
  <text x="72" y="578" class="value">Admin - Organization Name</text>
  <text x="292" y="578" class="value">String</text>
  <text x="452" y="578" class="value">SET-DEFAULT</text>
  <rect x="21" y="590" width="658" height="38" fill="#f7f7f7" />
  <line x1="20" y1="628" x2="680" y2="628" stroke="#e8e8e8" stroke-width="1" />
  <line x1="64" y1="590" x2="64" y2="628" stroke="#e8e8e8" stroke-width="1" />
  <line x1="284" y1="590" x2="284" y2="628" stroke="#e8e8e8" stroke-width="1" />
  <line x1="444" y1="590" x2="444" y2="628" stroke="#e8e8e8" stroke-width="1" />
  <rect x="34" y="601" width="16" height="16" fill="#ffffff" stroke="#cccccc" rx="3" />
  <text x="72" y="616" class="value">Admin - Phone</text>
  <text x="292" y="616" class="value">String</text>
  <text x="452" y="616" class="value">SET-DEFAULT</text>
  <rect x="21" y="628" width="658" height="38" fill="#ffffff" />
  <line x1="20" y1="666" x2="680" y2="666" stroke="#e8e8e8" stroke-width="1" />
  <line x1="64" y1="628" x2="64" y2="666" stroke="#e8e8e8" stroke-width="1" />
  <line x1="284" y1="628" x2="284" y2="666" stroke="#e8e8e8" stroke-width="1" />
  <line x1="444" y1="628" x2="444" y2="666" stroke="#e8e8e8" stroke-width="1" />
  <rect x="34" y="639" width="16" height="16" fill="#ffffff" stroke="#cccccc" rx="3" />
  <text x="72" y="654" class="value">Admin - Postal Code</text>
  <text x="292" y="654" class="value">String</text>
  <text x="452" y="654" class="value">SET-DEFAULT</text>
  <rect x="21" y="666" width="658" height="38" fill="#f7f7f7" />
  <line x1="20" y1="704" x2="680" y2="704" stroke="#e8e8e8" stroke-width="1" />
  <line x1="64" y1="666" x2="64" y2="704" stroke="#e8e8e8" stroke-width="1" />
  <line x1="284" y1="666" x2="284" y2="704" stroke="#e8e8e8" stroke-width="1" />
  <line x1="444" y1="666" x2="444" y2="704" stroke="#e8e8e8" stroke-width="1" />
  <rect x="34" y="677" width="16" height="16" fill="#ffffff" stroke="#cccccc" rx="3" />
  <text x="72" y="692" class="value">Admin - Region</text>
  <text x="292" y="692" class="value">String</text>
  <text x="452" y="692" class="value">SET-DEFAULT</text>
  <rect x="21" y="704" width="658" height="38" fill="#ffffff" />
  <line x1="20" y1="742" x2="680" y2="742" stroke="#e8e8e8" stroke-width="1" />
  <line x1="64" y1="704" x2="64" y2="742" stroke="#e8e8e8" stroke-width="1" />
  <line x1="284" y1="704" x2="284" y2="742" stroke="#e8e8e8" stroke-width="1" />
  <line x1="444" y1="704" x2="444" y2="742" stroke="#e8e8e8" stroke-width="1" />
  <rect x="34" y="715" width="16" height="16" fill="#ffffff" stroke="#cccccc" rx="3" />
  <text x="72" y="730" class="value">Admin - Title</text>
  <text x="292" y="730" class="value">String</text>
  <text x="452" y="730" class="value">SET-DEFAULT</text>
  <rect x="21" y="742" width="658" height="38" fill="#f7f7f7" />
  <line x1="20" y1="780" x2="680" y2="780" stroke="#e8e8e8" stroke-width="1" />
  <line x1="64" y1="742" x2="64" y2="780" stroke="#e8e8e8" stroke-width="1" />
  <line x1="284" y1="742" x2="284" y2="780" stroke="#e8e8e8" stroke-width="1" />
  <line x1="444" y1="742" x2="444" y2="780" stroke="#e8e8e8" stroke-width="1" />
  <rect x="34" y="753" width="16" height="16" fill="#ffffff" stroke="#cccccc" rx="3" />
  <text x="72" y="768" class="value">Org - Address Line 1</text>
  <text x="292" y="768" class="value">String</text>
  <text x="452" y="768" class="value">SET-DEFAULT</text>
  <rect x="21" y="780" width="658" height="38" fill="#ffffff" />
  <line x1="20" y1="818" x2="680" y2="818" stroke="#e8e8e8" stroke-width="1" />
  <line x1="64" y1="780" x2="64" y2="818" stroke="#e8e8e8" stroke-width="1" />
  <line x1="284" y1="780" x2="284" y2="818" stroke="#e8e8e8" stroke-width="1" />
  <line x1="444" y1="780" x2="444" y2="818" stroke="#e8e8e8" stroke-width="1" />
  <rect x="34" y="791" width="16" height="16" fill="#ffffff" stroke="#cccccc" rx="3" />
  <text x="72" y="806" class="value">Org - Address Line 2</text>
  <text x="292" y="806" class="value">String</text>
  <rect x="21" y="818" width="658" height="38" fill="#f7f7f7" />
  <line x1="20" y1="856" x2="680" y2="856" stroke="#e8e8e8" stroke-width="1" />
  <line x1="64" y1="818" x2="64" y2="856" stroke="#e8e8e8" stroke-width="1" />
  <line x1="284" y1="818" x2="284" y2="856" stroke="#e8e8e8" stroke-width="1" />
  <line x1="444" y1="818" x2="444" y2="856" stroke="#e8e8e8" stroke-width="1" />
  <rect x="34" y="829" width="16" height="16" fill="#ffffff" stroke="#cccccc" rx="3" />
  <text x="72" y="844" class="value">Org - City</text>
  <text x="292" y="844" class="value">String</text>
  <text x="452" y="844" class="value">SET-DEFAULT</text>
  <rect x="21" y="856" width="658" height="38" fill="#ffffff" />
  <line x1="20" y1="894" x2="680" y2="894" stroke="#e8e8e8" stroke-width="1" />
  <line x1="64" y1="856" x2="64" y2="894" stroke="#e8e8e8" stroke-width="1" />
  <line x1="284" y1="856" x2="284" y2="894" stroke="#e8e8e8" stroke-width="1" />
  <line x1="444" y1="856" x2="444" y2="894" stroke="#e8e8e8" stroke-width="1" />
  <rect x="34" y="867" width="16" height="16" fill="#ffffff" stroke="#cccccc" rx="3" />
  <text x="72" y="882" class="value">Org - Country</text>
  <text x="292" y="882" class="value">String</text>
  <text x="452" y="882" class="value">SET-DEFAULT</text>
  <rect x="21" y="894" width="658" height="38" fill="#f7f7f7" />
  <line x1="20" y1="932" x2="680" y2="932" stroke="#e8e8e8" stroke-width="1" />
  <line x1="64" y1="894" x2="64" y2="932" stroke="#e8e8e8" stroke-width="1" />
  <line x1="284" y1="894" x2="284" y2="932" stroke="#e8e8e8" stroke-width="1" />
  <line x1="444" y1="894" x2="444" y2="932" stroke="#e8e8e8" stroke-width="1" />
  <rect x="34" y="905" width="16" height="16" fill="#ffffff" stroke="#cccccc" rx="3" />
  <text x="72" y="920" class="value">Org - Organization Name</text>
  <text x="292" y="920" class="value">String</text>
  <text x="452" y="920" class="value">SET-DEFAULT</text>
  <rect x="21" y="932" width="658" height="38" fill="#ffffff" />
  <line x1="20" y1="970" x2="680" y2="970" stroke="#e8e8e8" stroke-width="1" />
  <line x1="64" y1="932" x2="64" y2="970" stroke="#e8e8e8" stroke-width="1" />
  <line x1="284" y1="932" x2="284" y2="970" stroke="#e8e8e8" stroke-width="1" />
  <line x1="444" y1="932" x2="444" y2="970" stroke="#e8e8e8" stroke-width="1" />
  <rect x="34" y="943" width="16" height="16" fill="#ffffff" stroke="#cccccc" rx="3" />
  <text x="72" y="958" class="value">Org - Phone</text>
  <text x="292" y="958" class="value">String</text>
  <text x="452" y="958" class="value">SET-DEFAULT</text>
  <rect x="21" y="970" width="658" height="38" fill="#f7f7f7" />
  <line x1="20" y1="1008" x2="680" y2="1008" stroke="#e8e8e8" stroke-width="1" />
  <line x1="64" y1="970" x2="64" y2="1008" stroke="#e8e8e8" stroke-width="1" />
  <line x1="284" y1="970" x2="284" y2="1008" stroke="#e8e8e8" stroke-width="1" />
  <line x1="444" y1="970" x2="444" y2="1008" stroke="#e8e8e8" stroke-width="1" />
  <rect x="34" y="981" width="16" height="16" fill="#ffffff" stroke="#cccccc" rx="3" />
  <text x="72" y="996" class="value">Org - Postal Code</text>
  <text x="292" y="996" class="value">String</text>
  <text x="452" y="996" class="value">SET-DEFAULT</text>
  <rect x="21" y="1008" width="658" height="38" fill="#ffffff" />
  <line x1="20" y1="1046" x2="680" y2="1046" stroke="#e8e8e8" stroke-width="1" />
  <line x1="64" y1="1008" x2="64" y2="1046" stroke="#e8e8e8" stroke-width="1" />
  <line x1="284" y1="1008" x2="284" y2="1046" stroke="#e8e8e8" stroke-width="1" />
  <line x1="444" y1="1008" x2="444" y2="1046" stroke="#e8e8e8" stroke-width="1" />
  <rect x="34" y="1019" width="16" height="16" fill="#ffffff" stroke="#cccccc" rx="3" />
  <text x="72" y="1034" class="value">Org - Region</text>
  <text x="292" y="1034" class="value">String</text>
  <text x="452" y="1034" class="value">SET-DEFAULT</text>
  <rect x="21" y="1046" width="658" height="38" fill="#f7f7f7" />
  <line x1="20" y1="1084" x2="680" y2="1084" stroke="#e8e8e8" stroke-width="1" />
  <line x1="64" y1="1046" x2="64" y2="1084" stroke="#e8e8e8" stroke-width="1" />
  <line x1="284" y1="1046" x2="284" y2="1084" stroke="#e8e8e8" stroke-width="1" />
  <line x1="444" y1="1046" x2="444" y2="1084" stroke="#e8e8e8" stroke-width="1" />
  <rect x="34" y="1057" width="16" height="16" fill="#ffffff" stroke="#cccccc" rx="3" />
  <text x="72" y="1072" class="value">Tech - Address Line 1</text>
  <text x="292" y="1072" class="value">String</text>
  <text x="452" y="1072" class="value">SET-DEFAULT</text>
  <rect x="21" y="1084" width="658" height="38" fill="#ffffff" />
  <line x1="20" y1="1122" x2="680" y2="1122" stroke="#e8e8e8" stroke-width="1" />
  <line x1="64" y1="1084" x2="64" y2="1122" stroke="#e8e8e8" stroke-width="1" />
  <line x1="284" y1="1084" x2="284" y2="1122" stroke="#e8e8e8" stroke-width="1" />
  <line x1="444" y1="1084" x2="444" y2="1122" stroke="#e8e8e8" stroke-width="1" />
  <rect x="34" y="1095" width="16" height="16" fill="#ffffff" stroke="#cccccc" rx="3" />
  <text x="72" y="1110" class="value">Tech - Address Line 2</text>
  <text x="292" y="1110" class="value">String</text>
  <rect x="21" y="1122" width="658" height="38" fill="#f7f7f7" />
  <line x1="20" y1="1160" x2="680" y2="1160" stroke="#e8e8e8" stroke-width="1" />
  <line x1="64" y1="1122" x2="64" y2="1160" stroke="#e8e8e8" stroke-width="1" />
  <line x1="284" y1="1122" x2="284" y2="1160" stroke="#e8e8e8" stroke-width="1" />
  <line x1="444" y1="1122" x2="444" y2="1160" stroke="#e8e8e8" stroke-width="1" />
  <rect x="34" y="1133" width="16" height="16" fill="#ffffff" stroke="#cccccc" rx="3" />
  <text x="72" y="1148" class="value">Tech - City</text>
  <text x="292" y="1148" class="value">String</text>
  <text x="452" y="1148" class="value">SET-DEFAULT</text>
  <rect x="21" y="1160" width="658" height="38" fill="#ffffff" />
  <line x1="20" y1="1198" x2="680" y2="1198" stroke="#e8e8e8" stroke-width="1" />
  <line x1="64" y1="1160" x2="64" y2="1198" stroke="#e8e8e8" stroke-width="1" />
  <line x1="284" y1="1160" x2="284" y2="1198" stroke="#e8e8e8" stroke-width="1" />
  <line x1="444" y1="1160" x2="444" y2="1198" stroke="#e8e8e8" stroke-width="1" />
  <rect x="34" y="1171" width="16" height="16" fill="#ffffff" stroke="#cccccc" rx="3" />
  <text x="72" y="1186" class="value">Tech - Country</text>
  <text x="292" y="1186" class="value">String</text>
  <text x="452" y="1186" class="value">SET-DEFAULT</text>
  <rect x="21" y="1198" width="658" height="38" fill="#f7f7f7" />
  <line x1="20" y1="1236" x2="680" y2="1236" stroke="#e8e8e8" stroke-width="1" />
  <line x1="64" y1="1198" x2="64" y2="1236" stroke="#e8e8e8" stroke-width="1" />
  <line x1="284" y1="1198" x2="284" y2="1236" stroke="#e8e8e8" stroke-width="1" />
  <line x1="444" y1="1198" x2="444" y2="1236" stroke="#e8e8e8" stroke-width="1" />
  <rect x="34" y="1209" width="16" height="16" fill="#ffffff" stroke="#cccccc" rx="3" />
  <text x="72" y="1224" class="value">Tech - Email</text>
  <text x="292" y="1224" class="value">String</text>
  <text x="452" y="1224" class="value">SET-DEFAULT</text>
  <rect x="21" y="1236" width="658" height="38" fill="#ffffff" />
  <line x1="20" y1="1274" x2="680" y2="1274" stroke="#e8e8e8" stroke-width="1" />
  <line x1="64" y1="1236" x2="64" y2="1274" stroke="#e8e8e8" stroke-width="1" />
  <line x1="284" y1="1236" x2="284" y2="1274" stroke="#e8e8e8" stroke-width="1" />
  <line x1="444" y1="1236" x2="444" y2="1274" stroke="#e8e8e8" stroke-width="1" />
  <rect x="34" y="1247" width="16" height="16" fill="#ffffff" stroke="#cccccc" rx="3" />
  <text x="72" y="1262" class="value">Tech - First Name</text>
  <text x="292" y="1262" class="value">String</text>
  <text x="452" y="1262" class="value">SET-DEFAULT</text>
  <rect x="21" y="1274" width="658" height="38" fill="#f7f7f7" />
  <line x1="20" y1="1312" x2="680" y2="1312" stroke="#e8e8e8" stroke-width="1" />
  <line x1="64" y1="1274" x2="64" y2="1312" stroke="#e8e8e8" stroke-width="1" />
  <line x1="284" y1="1274" x2="284" y2="1312" stroke="#e8e8e8" stroke-width="1" />
  <line x1="444" y1="1274" x2="444" y2="1312" stroke="#e8e8e8" stroke-width="1" />
  <rect x="34" y="1285" width="16" height="16" fill="#ffffff" stroke="#cccccc" rx="3" />
  <text x="72" y="1300" class="value">Tech - Last Name</text>
  <text x="292" y="1300" class="value">String</text>
  <text x="452" y="1300" class="value">SET-DEFAULT</text>
  <rect x="21" y="1312" width="658" height="38" fill="#ffffff" />
  <line x1="20" y1="1350" x2="680" y2="1350" stroke="#e8e8e8" stroke-width="1" />
  <line x1="64" y1="1312" x2="64" y2="1350" stroke="#e8e8e8" stroke-width="1" />
  <line x1="284" y1="1312" x2="284" y2="1350" stroke="#e8e8e8" stroke-width="1" />
  <line x1="444" y1="1312" x2="444" y2="1350" stroke="#e8e8e8" stroke-width="1" />
  <rect x="34" y="1323" width="16" height="16" fill="#ffffff" stroke="#cccccc" rx="3" />
  <text x="72" y="1338" class="value">Tech - Organization Name</text>
  <text x="292" y="1338" class="value">String</text>
  <text x="452" y="1338" class="value">Akamai</text>
  <rect x="21" y="1350" width="658" height="38" fill="#f7f7f7" />
  <line x1="20" y1="1388" x2="680" y2="1388" stroke="#e8e8e8" stroke-width="1" />
  <line x1="64" y1="1350" x2="64" y2="1388" stroke="#e8e8e8" stroke-width="1" />
  <line x1="284" y1="1350" x2="284" y2="1388" stroke="#e8e8e8" stroke-width="1" />
  <line x1="444" y1="1350" x2="444" y2="1388" stroke="#e8e8e8" stroke-width="1" />
  <rect x="34" y="1361" width="16" height="16" fill="#ffffff" stroke="#cccccc" rx="3" />
  <text x="72" y="1376" class="value">Tech - Phone</text>
  <text x="292" y="1376" class="value">String</text>
  <text x="452" y="1376" class="value">SET-DEFAULT</text>
  <rect x="21" y="1388" width="658" height="38" fill="#ffffff" />
  <line x1="20" y1="1426" x2="680" y2="1426" stroke="#e8e8e8" stroke-width="1" />
  <line x1="64" y1="1388" x2="64" y2="1426" stroke="#e8e8e8" stroke-width="1" />
  <line x1="284" y1="1388" x2="284" y2="1426" stroke="#e8e8e8" stroke-width="1" />
  <line x1="444" y1="1388" x2="444" y2="1426" stroke="#e8e8e8" stroke-width="1" />
  <rect x="34" y="1399" width="16" height="16" fill="#ffffff" stroke="#cccccc" rx="3" />
  <text x="72" y="1414" class="value">Tech - Postal Code</text>
  <text x="292" y="1414" class="value">String</text>
  <text x="452" y="1414" class="value">SET-DEFAULT</text>
  <rect x="21" y="1426" width="658" height="38" fill="#f7f7f7" />
  <line x1="20" y1="1464" x2="680" y2="1464" stroke="#e8e8e8" stroke-width="1" />
  <line x1="64" y1="1426" x2="64" y2="1464" stroke="#e8e8e8" stroke-width="1" />
  <line x1="284" y1="1426" x2="284" y2="1464" stroke="#e8e8e8" stroke-width="1" />
  <line x1="444" y1="1426" x2="444" y2="1464" stroke="#e8e8e8" stroke-width="1" />
  <rect x="34" y="1437" width="16" height="16" fill="#ffffff" stroke="#cccccc" rx="3" />
  <text x="72" y="1452" class="value">Tech - Region</text>
  <text x="292" y="1452" class="value">String</text>
  <text x="452" y="1452" class="value">SET-DEFAULT</text>
  <rect x="21" y="1464" width="658" height="38" fill="#ffffff" />
  <line x1="20" y1="1502" x2="680" y2="1502" stroke="#e8e8e8" stroke-width="1" />
  <line x1="64" y1="1464" x2="64" y2="1502" stroke="#e8e8e8" stroke-width="1" />
  <line x1="284" y1="1464" x2="284" y2="1502" stroke="#e8e8e8" stroke-width="1" />
  <line x1="444" y1="1464" x2="444" y2="1502" stroke="#e8e8e8" stroke-width="1" />
  <rect x="34" y="1475" width="16" height="16" fill="#ffffff" stroke="#cccccc" rx="3" />
  <text x="72" y="1490" class="value">Tech - Title</text>
  <text x="292" y="1490" class="value">String</text>
  <text x="452" y="1490" class="value">SET-DEFAULT</text>
  <rect x="21" y="1502" width="658" height="38" fill="#f7f7f7" />
  <line x1="20" y1="1540" x2="680" y2="1540" stroke="#e8e8e8" stroke-width="1" />
  <line x1="64" y1="1502" x2="64" y2="1540" stroke="#e8e8e8" stroke-width="1" />
  <line x1="284" y1="1502" x2="284" y2="1540" stroke="#e8e8e8" stroke-width="1" />
  <line x1="444" y1="1502" x2="444" y2="1540" stroke="#e8e8e8" stroke-width="1" />
  <rect x="34" y="1513" width="16" height="16" fill="#ffffff" stroke="#cccccc" rx="3" />
  <text x="72" y="1528" class="value">Deployment Network</text>
  <text x="292" y="1528" class="value">MultipleChoice</text>
  <text x="452" y="1528" class="value">Standard TLS</text>
</svg>